<svg width="1940" height="343" viewBox="0 0 1940 343" fill="none" xmlns="http://www.w3.org/2000/svg">
<g clip-path="url(#clip0_13_16)">
<rect width="1940" height="343" fill="white"/>
<rect x="-3.89996" width="80.3148" height="20.5514" rx="3" fill="#E14646" fill-opacity="0.3"/>
<path d="M3.75291 14V3.81818H7.19325C7.98871 3.81818 8.64164 3.95407 9.15206 4.22585C9.66248 4.49432 10.0403 4.86387 10.2856 5.33452C10.5308 5.80516 10.6535 6.34044 10.6535 6.94034C10.6535 7.54025 10.5308 8.07221 10.2856 8.53622C10.0403 9.00024 9.66413 9.36482 9.15703 9.62997C8.64993 9.89181 8.00197 10.0227 7.21314 10.0227H4.42905V8.90909H7.17337C7.71693 8.90909 8.15443 8.82955 8.48587 8.67045C8.82062 8.51136 9.06257 8.28598 9.21172 7.99432C9.36418 7.69934 9.44041 7.34801 9.44041 6.94034C9.44041 6.53267 9.36418 6.17637 9.21172 5.87145C9.05926 5.56652 8.81565 5.3312 8.4809 5.16548C8.14614 4.99645 7.70367 4.91193 7.15348 4.91193H4.98587V14H3.75291ZM8.54553 9.42614L11.0512 14H9.61939L7.15348 9.42614H8.54553ZM15.6686 14.1591C14.9328 14.1591 14.2981 13.9967 13.7645 13.6719C13.2342 13.3438 12.8248 12.8864 12.5365 12.2997C12.2514 11.7098 12.1089 11.0237 12.1089 10.2415C12.1089 9.45928 12.2514 8.76989 12.5365 8.1733C12.8248 7.57339 13.2259 7.10606 13.7396 6.77131C14.2566 6.43324 14.8599 6.2642 15.5493 6.2642C15.947 6.2642 16.3397 6.33049 16.7275 6.46307C17.1153 6.59564 17.4683 6.81108 17.7865 7.10938C18.1047 7.40436 18.3582 7.79545 18.5471 8.28267C18.736 8.76989 18.8305 9.36979 18.8305 10.0824V10.5795H12.9441V9.56534H17.6373C17.6373 9.13447 17.5511 8.75 17.3788 8.41193C17.2098 8.07386 16.9678 7.80705 16.6529 7.61151C16.3414 7.41596 15.9735 7.31818 15.5493 7.31818C15.0819 7.31818 14.6776 7.43419 14.3362 7.66619C13.9981 7.89489 13.7379 8.19318 13.5556 8.56108C13.3734 8.92898 13.2822 9.32339 13.2822 9.74432V10.4205C13.2822 10.9972 13.3816 11.486 13.5805 11.8871C13.7827 12.2848 14.0627 12.5881 14.4207 12.7969C14.7787 13.0024 15.1946 13.1051 15.6686 13.1051C15.9768 13.1051 16.2552 13.062 16.5038 12.9759C16.7557 12.8864 16.9728 12.7538 17.1551 12.5781C17.3374 12.3991 17.4782 12.1771 17.5777 11.9119L18.7112 12.2301C18.5919 12.6146 18.3913 12.9527 18.1096 13.2443C17.8279 13.5327 17.4799 13.758 17.0656 13.9205C16.6513 14.0795 16.1856 14.1591 15.6686 14.1591ZM23.4988 14.1591C22.8625 14.1591 22.3007 13.9983 21.8135 13.6768C21.3262 13.352 20.9451 12.8946 20.67 12.3047C20.3949 11.7114 20.2574 11.0104 20.2574 10.2017C20.2574 9.39962 20.3949 8.7036 20.67 8.11364C20.9451 7.52367 21.3279 7.06794 21.8184 6.74645C22.309 6.42495 22.8757 6.2642 23.5187 6.2642C24.0159 6.2642 24.4086 6.34706 24.697 6.51278C24.9886 6.67519 25.2107 6.8608 25.3632 7.0696C25.519 7.27509 25.6399 7.44413 25.7261 7.5767H25.8255V3.81818H26.9988V14H25.8653V12.8267H25.7261C25.6399 12.9659 25.5173 13.1416 25.3582 13.3537C25.1991 13.5625 24.9721 13.7498 24.6771 13.9155C24.3821 14.0779 23.9894 14.1591 23.4988 14.1591ZM23.6579 13.1051C24.1286 13.1051 24.5263 12.9825 24.8511 12.7372C25.1759 12.4886 25.4228 12.1456 25.5919 11.7081C25.7609 11.2673 25.8454 10.7585 25.8454 10.1818C25.8454 9.61174 25.7626 9.11293 25.5968 8.68537C25.4311 8.2545 25.1859 7.91974 24.861 7.68111C24.5362 7.43916 24.1352 7.31818 23.6579 7.31818C23.1608 7.31818 22.7465 7.44579 22.415 7.70099C22.0869 7.95289 21.84 8.29593 21.6743 8.73011C21.5119 9.16098 21.4306 9.64489 21.4306 10.1818C21.4306 10.7254 21.5135 11.2192 21.6792 11.6634C21.8483 12.1042 22.0968 12.4555 22.425 12.7173C22.7564 12.9759 23.1674 13.1051 23.6579 13.1051ZM36.5691 6.36364V7.35795H32.6118V6.36364H36.5691ZM33.7652 4.53409H34.9385V11.8125C34.9385 12.1439 34.9865 12.3925 35.0826 12.5582C35.1821 12.7206 35.308 12.83 35.4605 12.8864C35.6163 12.9394 35.7803 12.9659 35.9527 12.9659C36.0819 12.9659 36.188 12.9593 36.2708 12.946C36.3537 12.9295 36.42 12.9162 36.4697 12.9062L36.7083 13.9602C36.6288 13.9901 36.5178 14.0199 36.3752 14.0497C36.2327 14.0829 36.0521 14.0994 35.8333 14.0994C35.5019 14.0994 35.1771 14.0282 34.8589 13.8857C34.544 13.7431 34.2822 13.526 34.0734 13.2344C33.8679 12.9427 33.7652 12.5748 33.7652 12.1307V4.53409ZM40.5812 14.179C40.0973 14.179 39.6582 14.0878 39.2637 13.9055C38.8693 13.7199 38.5561 13.4531 38.3241 13.1051C38.0921 12.7538 37.9761 12.3295 37.9761 11.8324C37.9761 11.3949 38.0623 11.0402 38.2346 10.7685C38.407 10.4934 38.6373 10.2779 38.9257 10.1222C39.214 9.96638 39.5322 9.85038 39.8802 9.77415C40.2315 9.6946 40.5845 9.63163 40.9392 9.58523C41.4032 9.52557 41.7794 9.48082 42.0677 9.45099C42.3594 9.41785 42.5715 9.36316 42.7041 9.28693C42.84 9.2107 42.9079 9.07812 42.9079 8.8892V8.84943C42.9079 8.3589 42.7737 7.97775 42.5052 7.70597C42.2401 7.43419 41.8374 7.2983 41.2971 7.2983C40.737 7.2983 40.2978 7.42093 39.9797 7.66619C39.6615 7.91146 39.4377 8.1733 39.3085 8.4517L38.1949 8.05398C38.3937 7.58996 38.6589 7.22869 38.9903 6.97017C39.3251 6.70833 39.6896 6.52604 40.0841 6.4233C40.4818 6.31723 40.8729 6.2642 41.2574 6.2642C41.5026 6.2642 41.7843 6.29403 42.1025 6.35369C42.424 6.41004 42.7339 6.5277 43.0322 6.70668C43.3338 6.88565 43.5841 7.15578 43.7829 7.51705C43.9818 7.87831 44.0812 8.36222 44.0812 8.96875V14H42.9079V12.9659H42.8483C42.7687 13.1316 42.6361 13.3089 42.4505 13.4979C42.2649 13.6868 42.018 13.8475 41.7098 13.9801C41.4015 14.1127 41.0253 14.179 40.5812 14.179ZM40.7602 13.125C41.2242 13.125 41.6153 13.0339 41.9335 12.8516C42.255 12.6693 42.4969 12.4339 42.6593 12.1456C42.8251 11.8572 42.9079 11.554 42.9079 11.2358V10.1619C42.8582 10.2216 42.7488 10.2763 42.5798 10.326C42.4141 10.3724 42.2218 10.4138 42.0031 10.4503C41.7877 10.4834 41.5772 10.5133 41.3717 10.5398C41.1695 10.563 41.0055 10.5829 40.8795 10.5994C40.5746 10.6392 40.2895 10.7038 40.0244 10.7933C39.7626 10.8795 39.5504 11.0104 39.388 11.1861C39.2289 11.3584 39.1494 11.5937 39.1494 11.892C39.1494 12.2997 39.3002 12.608 39.6018 12.8168C39.9067 13.0223 40.2929 13.125 40.7602 13.125ZM49.3051 17.0227C48.7384 17.0227 48.2511 16.9498 47.8435 16.804C47.4358 16.6615 47.0961 16.4725 46.8243 16.2372C46.5558 16.0052 46.342 15.7566 46.183 15.4915L47.1176 14.8352C47.2237 14.9744 47.3579 15.1335 47.5203 15.3125C47.6827 15.4948 47.9048 15.6522 48.1865 15.7848C48.4715 15.9207 48.8444 15.9886 49.3051 15.9886C49.9216 15.9886 50.4304 15.8395 50.8314 15.5412C51.2324 15.2429 51.433 14.7756 51.433 14.1392V12.5881H51.3335C51.2473 12.7273 51.1247 12.8996 50.9656 13.1051C50.8098 13.3073 50.5845 13.4879 50.2895 13.647C49.9978 13.8028 49.6034 13.8807 49.1063 13.8807C48.4898 13.8807 47.9363 13.7348 47.4457 13.4432C46.9585 13.1515 46.5724 12.7273 46.2874 12.1705C46.0056 11.6136 45.8648 10.9375 45.8648 10.142C45.8648 9.35985 46.0023 8.67874 46.2774 8.09872C46.5525 7.51539 46.9353 7.06463 47.4259 6.74645C47.9164 6.42495 48.4831 6.2642 49.1261 6.2642C49.6233 6.2642 50.0177 6.34706 50.3094 6.51278C50.6044 6.67519 50.8297 6.8608 50.9855 7.0696C51.1446 7.27509 51.2672 7.44413 51.3534 7.5767H51.4727V6.36364H52.6063V14.2188C52.6063 14.875 52.4571 15.4086 52.1588 15.8196C51.8638 16.2339 51.4661 16.5372 50.9656 16.7294C50.4685 16.925 49.915 17.0227 49.3051 17.0227ZM49.2653 12.8267C49.736 12.8267 50.1337 12.719 50.4585 12.5036C50.7833 12.2881 51.0303 11.9782 51.1993 11.5739C51.3683 11.1695 51.4528 10.6856 51.4528 10.1222C51.4528 9.57197 51.37 9.08641 51.2043 8.66548C51.0385 8.24455 50.7933 7.91477 50.4685 7.67614C50.1437 7.4375 49.7426 7.31818 49.2653 7.31818C48.7682 7.31818 48.3539 7.44413 48.0224 7.69602C47.6943 7.94792 47.4474 8.28598 47.2817 8.71023C47.1193 9.13447 47.0381 9.60511 47.0381 10.1222C47.0381 10.6525 47.1209 11.1214 47.2866 11.5291C47.4557 11.9335 47.7043 12.2517 48.0324 12.4837C48.3638 12.7124 48.7748 12.8267 49.2653 12.8267Z" fill="#37352F"/>
<path d="M-4.00006 0H1944V343H-4.00006V0Z" fill="#CCFFE2"/>
<path fill-rule="evenodd" clip-rule="evenodd" d="M1943.55 237.164V342.998H475.378C535.531 293.688 599.914 248.212 668.418 207.172C1082.63 -40.9798 1540.57 29.3659 1943.55 237.164Z" fill="#FFECEA"/>
<path fill-rule="evenodd" clip-rule="evenodd" d="M1373.87 169.08C1373.93 113.585 1408.92 58.5252 1467.21 46.2886C1518.96 35.4249 1554.8 83.747 1584.16 124.933C1611.76 163.654 1640.07 210.579 1611.16 248.223C1579.64 289.281 1518.29 294.69 1466.96 277.572C1415.17 260.296 1373.82 220.063 1373.87 169.08Z" fill="#0018A4"/>
<path fill-rule="evenodd" clip-rule="evenodd" d="M135.668 64.0355C166.613 63.0843 197.932 81.711 205.784 114.146C212.755 142.942 186.443 163.876 163.996 181.054C142.892 197.204 117.227 213.893 95.7255 198.369C72.2754 181.438 68.1763 147.165 76.8157 118.11C85.5344 88.7876 107.239 64.9093 135.668 64.0355Z" fill="white"/>
<rect x="-4" width="1944" height="100" fill="#0018A4"/>
<path d="M-78.5034 61.344H-66.9824V62H-84.7354V33.3H-84.0794V55.768H-79.1594V33.3H-78.5034V55.768H-66.9824V56.424H-78.5034V61.344ZM-84.0794 61.344H-79.1594V56.424H-84.0794V61.344ZM-48.8604 42.115V60.155C-46.1134 58.474 -43.9404 55.071 -43.9404 51.135C-43.9404 47.199 -46.1134 43.796 -48.8604 42.115ZM-54.6414 39.778C-52.7964 39.778 -51.0744 40.229 -49.5164 41.008V40.27H-48.8604V41.377C-46.5644 42.648 -44.8014 44.944 -43.9404 47.322V40.27H-43.2844V62H-43.9404V54.907C-44.7604 57.244 -46.5644 59.663 -48.8604 60.934V62H-49.5164V61.262C-51.0744 62.041 -52.7964 62.492 -54.6414 62.492C-60.9144 62.492 -65.9984 57.408 -65.9984 51.135C-65.9984 44.862 -60.9144 39.778 -54.6414 39.778ZM-54.6414 61.836C-52.7964 61.836 -51.0334 61.385 -49.5164 60.565V53.841C-50.5004 55.645 -52.4274 56.916 -54.6414 56.916C-57.8394 56.916 -60.4224 54.333 -60.4224 51.135C-60.4224 47.937 -57.8394 45.354 -54.6414 45.354C-52.4274 45.354 -50.5004 46.625 -49.5164 48.47V41.746C-51.0334 40.926 -52.7964 40.434 -54.6414 40.434C-60.5454 40.434 -65.3424 45.231 -65.3424 51.135C-65.3424 57.039 -60.5454 61.836 -54.6414 61.836ZM-54.6414 56.26C-51.7714 56.26 -49.5164 53.964 -49.5164 51.135C-49.5164 48.306 -51.7714 46.01 -54.6414 46.01C-57.4704 46.01 -59.7664 48.306 -59.7664 51.135C-59.7664 53.964 -57.4704 56.26 -54.6414 56.26ZM-28.1563 62.492C-34.4703 62.492 -39.5543 57.367 -39.5543 51.135V31.25H-38.8983V47.363C-38.0373 44.985 -36.2743 42.689 -33.9783 41.418V31.25H-33.3223V41.008C-31.7643 40.229 -30.0013 39.778 -28.1563 39.778C-21.8833 39.778 -16.7993 44.862 -16.7993 51.135C-16.7993 57.408 -21.8833 62.492 -28.1563 62.492ZM-28.1563 56.916C-31.3543 56.916 -33.9783 54.292 -33.9783 51.135V42.156C-36.7253 43.837 -38.8983 47.24 -38.8983 51.176C-38.8983 57.039 -34.1423 61.836 -28.1563 61.836C-22.2523 61.836 -17.4553 57.039 -17.4553 51.135C-17.4553 45.231 -22.2523 40.434 -28.1563 40.434C-30.0013 40.434 -31.8053 40.926 -33.3223 41.746V48.511C-32.3383 46.625 -30.3703 45.354 -28.1563 45.354C-24.9583 45.354 -22.3753 47.937 -22.3753 51.135C-22.3753 54.333 -24.9583 56.916 -28.1563 56.916ZM-28.1563 46.01C-31.0263 46.01 -33.3223 48.306 -33.3223 51.135C-33.3223 53.964 -31.0263 56.26 -28.1563 56.26C-25.3273 56.26 -23.0313 53.964 -23.0313 51.135C-23.0313 48.306 -25.3273 46.01 -28.1563 46.01ZM6.77695 40.27L-7.40905 71.02H-8.10605L-5.56405 65.526L-8.43405 59.376L-13.8051 71.02H-14.5021L-8.76205 58.597L-17.3311 40.27H-16.6341L-8.43405 57.859L-5.60505 51.75L-10.9351 40.27H-10.2381L-5.23605 50.971L-0.316054 40.27H0.380946L-4.90805 51.709L-2.03805 57.859L6.07995 40.27H6.77695ZM-5.19505 64.747L-2.36605 58.638L-5.23605 52.488L-8.06505 58.638L-5.19505 64.747ZM14.3193 62V42.689C12.1053 44.042 9.39934 46.83 9.39934 51.709V62H8.74334V40.27H9.39934V47.732C10.4243 44.903 12.0233 43.304 14.3193 41.951V40.27H14.9753V41.582C16.6153 40.762 18.3783 40.352 20.1003 40.352V41.008C18.3783 41.008 16.5743 41.459 14.9753 42.32V49.044C15.9183 47.199 17.8863 45.928 20.1003 45.928V46.584C17.2303 46.584 14.9753 48.88 14.9753 51.709V62H14.3193ZM22.5568 62V40.27H23.2128V62H22.5568ZM28.7888 40.27V62H28.1328V40.27H28.7888ZM28.1328 38.138V31.25H28.7888V38.138H28.1328ZM23.2128 31.25V38.138H22.5568V31.25H23.2128ZM32.967 62V40.27H33.623V46.461C34.525 44.124 36.288 42.197 38.543 41.09V40.27H39.199V40.762C40.347 40.311 41.577 40.065 42.889 40.065C48.342 40.065 52.811 44.534 52.811 49.987V62H52.155V49.987C52.155 44.903 47.973 40.721 42.889 40.721C41.577 40.721 40.347 41.008 39.199 41.5V47.691C39.978 46.461 41.331 45.641 42.889 45.641C45.267 45.641 47.235 47.609 47.235 49.987V62H46.579V49.987C46.579 47.978 44.898 46.297 42.889 46.297C40.88 46.297 39.199 47.978 39.199 49.987V62H38.543V41.828C35.632 43.386 33.623 46.461 33.623 49.987V62H32.967ZM58.3197 40.926H55.0807V40.27H58.3197V33.3H58.9757V40.27H63.8957V33.3H64.5517V40.27H67.7907V40.926H64.5517V45.846H67.7907V46.502H64.5517V62H63.8957V46.502H58.9757V62H58.3197V46.502H55.0807V45.846H58.3197V40.926ZM63.8957 40.926H58.9757V45.846H63.8957V40.926ZM70.7639 62V31.25H71.4199V46.461C72.3219 44.124 74.0849 42.197 76.3399 41.09V31.25H76.9959V40.762C78.1439 40.311 79.3739 40.065 80.6859 40.065C86.1389 40.065 90.6079 44.534 90.6079 49.987V62H89.9519V49.987C89.9519 44.903 85.7699 40.721 80.6859 40.721C79.3739 40.721 78.1439 41.008 76.9959 41.5V47.691C77.7749 46.461 79.1279 45.641 80.6859 45.641C83.0639 45.641 85.0319 47.609 85.0319 49.987V62H84.3759V49.987C84.3759 47.978 82.6949 46.297 80.6859 46.297C78.6769 46.297 76.9959 47.978 76.9959 49.987V62H76.3399V41.828C73.4289 43.386 71.4199 46.461 71.4199 49.987V62H70.7639ZM109.84 39.532V45.928H112.751C114.555 45.928 115.949 44.534 115.949 42.73C115.949 40.926 114.555 39.532 112.751 39.532H109.84ZM109.84 38.876H112.751C114.883 38.876 116.605 40.598 116.605 42.73C116.605 44.862 114.883 46.584 112.751 46.584H109.84V51.504H112.751C117.671 51.504 121.525 47.65 121.525 42.73C121.525 37.81 117.671 33.956 112.751 33.956H109.84V38.876ZM104.264 52.16V62H103.608V33.3H112.751C117.999 33.3 122.181 37.482 122.181 42.73C122.181 47.978 117.999 52.16 112.751 52.16H109.84V62H109.184V52.16H104.264ZM104.264 39.532V45.928H109.184V39.532H104.264ZM109.184 33.956H104.264V38.876H109.184V33.956ZM109.184 46.584H104.264V51.504H109.184V46.584ZM130.513 62V42.689C128.299 44.042 125.593 46.83 125.593 51.709V62H124.937V40.27H125.593V47.732C126.618 44.903 128.217 43.304 130.513 41.951V40.27H131.169V41.582C132.809 40.762 134.572 40.352 136.294 40.352V41.008C134.572 41.008 132.768 41.459 131.169 42.32V49.044C132.112 47.199 134.08 45.928 136.294 45.928V46.584C133.424 46.584 131.169 48.88 131.169 51.709V62H130.513ZM148.437 62.492C142.164 62.492 137.08 57.408 137.08 51.135C137.08 44.862 142.164 39.778 148.437 39.778C154.71 39.778 159.794 44.862 159.794 51.135C159.794 57.408 154.71 62.492 148.437 62.492ZM148.437 61.836C154.341 61.836 159.138 57.039 159.138 51.135C159.138 45.231 154.341 40.434 148.437 40.434C142.533 40.434 137.736 45.231 137.736 51.135C137.736 57.039 142.533 61.836 148.437 61.836ZM148.437 56.916C145.239 56.916 142.656 54.333 142.656 51.135C142.656 47.937 145.239 45.354 148.437 45.354C151.635 45.354 154.218 47.937 154.218 51.135C154.218 54.333 151.635 56.916 148.437 56.916ZM148.437 56.26C151.266 56.26 153.562 53.964 153.562 51.135C153.562 48.306 151.266 46.01 148.437 46.01C145.608 46.01 143.312 48.306 143.312 51.135C143.312 53.964 145.608 56.26 148.437 56.26ZM169.458 40.27V63.722C169.458 67.699 166.178 71.02 162.201 71.02H159.003V70.364H162.201C165.85 70.364 168.802 67.371 168.802 63.722V40.27H169.458ZM159.003 64.788H162.201C162.775 64.788 163.226 64.296 163.226 63.722V40.27H163.882V63.722C163.882 64.624 163.185 65.444 162.201 65.444H159.003V64.788ZM163.882 31.25V38.138H163.226V31.25H163.882ZM168.802 38.138V31.25H169.458V38.138H168.802ZM172.394 51.135C172.394 44.862 177.478 39.778 183.751 39.778C188.753 39.778 192.976 42.976 194.493 47.486L181.168 55.563C181.947 56.014 182.808 56.26 183.751 56.26C185.801 56.26 187.564 55.03 188.384 53.308L188.999 53.595C188.097 55.563 186.088 56.916 183.751 56.916C182.562 56.916 181.455 56.547 180.553 55.932L176.125 58.638C178.052 60.606 180.758 61.836 183.751 61.836C188.015 61.836 191.746 59.294 193.468 55.645L194.042 55.932C192.238 59.827 188.302 62.492 183.751 62.492C177.478 62.492 172.394 57.408 172.394 51.135ZM173.05 51.135C173.05 52.324 173.255 53.431 173.583 54.497L178.011 51.791C177.97 51.586 177.97 51.34 177.97 51.135C177.97 47.937 180.553 45.354 183.751 45.354C184.94 45.354 186.088 45.723 186.99 46.338L191.377 43.673C189.45 41.664 186.744 40.434 183.751 40.434C177.847 40.434 173.05 45.231 173.05 51.135ZM173.829 55.112C174.28 56.219 174.895 57.244 175.674 58.146L179.979 55.522C179.077 54.743 178.421 53.677 178.134 52.488L173.829 55.112ZM178.626 51.135V51.422L186.375 46.707C185.596 46.256 184.694 46.01 183.751 46.01C180.922 46.01 178.626 48.306 178.626 51.135ZM178.708 52.16C178.954 53.349 179.651 54.415 180.594 55.153L188.794 50.151C188.548 48.962 187.892 47.896 186.949 47.117L178.708 52.16ZM187.564 46.789C188.466 47.568 189.122 48.593 189.368 49.823L193.714 47.158C193.263 46.051 192.607 45.067 191.869 44.165L187.564 46.789ZM207.352 45.846V46.502H206.163C203.662 46.502 201.53 48.634 201.53 51.135C201.53 53.636 203.662 55.768 206.163 55.768H207.352V56.424H206.163C203.293 56.424 200.874 54.005 200.874 51.135C200.874 48.265 203.293 45.846 206.163 45.846H207.352ZM207.352 40.926H206.163C200.546 40.926 195.954 45.518 195.954 51.135C195.954 56.752 200.546 61.344 206.163 61.344H207.352V62H206.163C200.177 62 195.298 57.121 195.298 51.135C195.298 45.149 200.177 40.27 206.163 40.27H207.352V40.926ZM212.87 40.926H209.631V40.27H212.87V33.3H213.526V40.27H218.446V33.3H219.102V40.27H222.341V40.926H219.102V45.846H222.341V46.502H219.102V62H218.446V46.502H213.526V62H212.87V46.502H209.631V45.846H212.87V40.926ZM218.446 40.926H213.526V45.846H218.446V40.926ZM240.688 61.344H252.209V62H234.456V33.3H235.112V55.768H240.032V33.3H240.688V55.768H252.209V56.424H240.688V61.344ZM235.112 61.344H240.032V56.424H235.112V61.344ZM270.331 42.115V60.155C273.078 58.474 275.251 55.071 275.251 51.135C275.251 47.199 273.078 43.796 270.331 42.115ZM264.55 39.778C266.395 39.778 268.117 40.229 269.675 41.008V40.27H270.331V41.377C272.627 42.648 274.39 44.944 275.251 47.322V40.27H275.907V62H275.251V54.907C274.431 57.244 272.627 59.663 270.331 60.934V62H269.675V61.262C268.117 62.041 266.395 62.492 264.55 62.492C258.277 62.492 253.193 57.408 253.193 51.135C253.193 44.862 258.277 39.778 264.55 39.778ZM264.55 61.836C266.395 61.836 268.158 61.385 269.675 60.565V53.841C268.691 55.645 266.764 56.916 264.55 56.916C261.352 56.916 258.769 54.333 258.769 51.135C258.769 47.937 261.352 45.354 264.55 45.354C266.764 45.354 268.691 46.625 269.675 48.47V41.746C268.158 40.926 266.395 40.434 264.55 40.434C258.646 40.434 253.849 45.231 253.849 51.135C253.849 57.039 258.646 61.836 264.55 61.836ZM264.55 56.26C267.42 56.26 269.675 53.964 269.675 51.135C269.675 48.306 267.42 46.01 264.55 46.01C261.721 46.01 259.425 48.306 259.425 51.135C259.425 53.964 261.721 56.26 264.55 56.26ZM291.035 62.492C284.721 62.492 279.637 57.367 279.637 51.135V31.25H280.293V47.363C281.154 44.985 282.917 42.689 285.213 41.418V31.25H285.869V41.008C287.427 40.229 289.19 39.778 291.035 39.778C297.308 39.778 302.392 44.862 302.392 51.135C302.392 57.408 297.308 62.492 291.035 62.492ZM291.035 56.916C287.837 56.916 285.213 54.292 285.213 51.135V42.156C282.466 43.837 280.293 47.24 280.293 51.176C280.293 57.039 285.049 61.836 291.035 61.836C296.939 61.836 301.736 57.039 301.736 51.135C301.736 45.231 296.939 40.434 291.035 40.434C289.19 40.434 287.386 40.926 285.869 41.746V48.511C286.853 46.625 288.821 45.354 291.035 45.354C294.233 45.354 296.816 47.937 296.816 51.135C296.816 54.333 294.233 56.916 291.035 56.916ZM291.035 46.01C288.165 46.01 285.869 48.306 285.869 51.135C285.869 53.964 288.165 56.26 291.035 56.26C293.864 56.26 296.16 53.964 296.16 51.135C296.16 48.306 293.864 46.01 291.035 46.01ZM325.968 40.27L311.782 71.02H311.085L313.627 65.526L310.757 59.376L305.386 71.02H304.689L310.429 58.597L301.86 40.27H302.557L310.757 57.859L313.586 51.75L308.256 40.27H308.953L313.955 50.971L318.875 40.27H319.572L314.283 51.709L317.153 57.859L325.271 40.27H325.968ZM313.996 64.747L316.825 58.638L313.955 52.488L311.126 58.638L313.996 64.747ZM333.511 62V42.689C331.297 44.042 328.591 46.83 328.591 51.709V62H327.935V40.27H328.591V47.732C329.616 44.903 331.215 43.304 333.511 41.951V40.27H334.167V41.582C335.807 40.762 337.57 40.352 339.292 40.352V41.008C337.57 41.008 335.766 41.459 334.167 42.32V49.044C335.11 47.199 337.078 45.928 339.292 45.928V46.584C336.422 46.584 334.167 48.88 334.167 51.709V62H333.511ZM341.748 62V40.27H342.404V62H341.748ZM347.98 40.27V62H347.324V40.27H347.98ZM347.324 38.138V31.25H347.98V38.138H347.324ZM342.404 31.25V38.138H341.748V31.25H342.404ZM352.158 62V40.27H352.814V46.461C353.716 44.124 355.479 42.197 357.734 41.09V40.27H358.39V40.762C359.538 40.311 360.768 40.065 362.08 40.065C367.533 40.065 372.002 44.534 372.002 49.987V62H371.346V49.987C371.346 44.903 367.164 40.721 362.08 40.721C360.768 40.721 359.538 41.008 358.39 41.5V47.691C359.169 46.461 360.522 45.641 362.08 45.641C364.458 45.641 366.426 47.609 366.426 49.987V62H365.77V49.987C365.77 47.978 364.089 46.297 362.08 46.297C360.071 46.297 358.39 47.978 358.39 49.987V62H357.734V41.828C354.823 43.386 352.814 46.461 352.814 49.987V62H352.158ZM377.511 40.926H374.272V40.27H377.511V33.3H378.167V40.27H383.087V33.3H383.743V40.27H386.982V40.926H383.743V45.846H386.982V46.502H383.743V62H383.087V46.502H378.167V62H377.511V46.502H374.272V45.846H377.511V40.926ZM383.087 40.926H378.167V45.846H383.087V40.926ZM389.955 62V31.25H390.611V46.461C391.513 44.124 393.276 42.197 395.531 41.09V31.25H396.187V40.762C397.335 40.311 398.565 40.065 399.877 40.065C405.33 40.065 409.799 44.534 409.799 49.987V62H409.143V49.987C409.143 44.903 404.961 40.721 399.877 40.721C398.565 40.721 397.335 41.008 396.187 41.5V47.691C396.966 46.461 398.319 45.641 399.877 45.641C402.255 45.641 404.223 47.609 404.223 49.987V62H403.567V49.987C403.567 47.978 401.886 46.297 399.877 46.297C397.868 46.297 396.187 47.978 396.187 49.987V62H395.531V41.828C392.62 43.386 390.611 46.461 390.611 49.987V62H389.955ZM429.032 39.532V45.928H431.943C433.747 45.928 435.141 44.534 435.141 42.73C435.141 40.926 433.747 39.532 431.943 39.532H429.032ZM429.032 38.876H431.943C434.075 38.876 435.797 40.598 435.797 42.73C435.797 44.862 434.075 46.584 431.943 46.584H429.032V51.504H431.943C436.863 51.504 440.717 47.65 440.717 42.73C440.717 37.81 436.863 33.956 431.943 33.956H429.032V38.876ZM423.456 52.16V62H422.8V33.3H431.943C437.191 33.3 441.373 37.482 441.373 42.73C441.373 47.978 437.191 52.16 431.943 52.16H429.032V62H428.376V52.16H423.456ZM423.456 39.532V45.928H428.376V39.532H423.456ZM428.376 33.956H423.456V38.876H428.376V33.956ZM428.376 46.584H423.456V51.504H428.376V46.584ZM449.704 62V42.689C447.49 44.042 444.784 46.83 444.784 51.709V62H444.128V40.27H444.784V47.732C445.809 44.903 447.408 43.304 449.704 41.951V40.27H450.36V41.582C452 40.762 453.763 40.352 455.485 40.352V41.008C453.763 41.008 451.959 41.459 450.36 42.32V49.044C451.303 47.199 453.271 45.928 455.485 45.928V46.584C452.615 46.584 450.36 48.88 450.36 51.709V62H449.704ZM467.628 62.492C461.355 62.492 456.271 57.408 456.271 51.135C456.271 44.862 461.355 39.778 467.628 39.778C473.901 39.778 478.985 44.862 478.985 51.135C478.985 57.408 473.901 62.492 467.628 62.492ZM467.628 61.836C473.532 61.836 478.329 57.039 478.329 51.135C478.329 45.231 473.532 40.434 467.628 40.434C461.724 40.434 456.927 45.231 456.927 51.135C456.927 57.039 461.724 61.836 467.628 61.836ZM467.628 56.916C464.43 56.916 461.847 54.333 461.847 51.135C461.847 47.937 464.43 45.354 467.628 45.354C470.826 45.354 473.409 47.937 473.409 51.135C473.409 54.333 470.826 56.916 467.628 56.916ZM467.628 56.26C470.457 56.26 472.753 53.964 472.753 51.135C472.753 48.306 470.457 46.01 467.628 46.01C464.799 46.01 462.503 48.306 462.503 51.135C462.503 53.964 464.799 56.26 467.628 56.26ZM488.649 40.27V63.722C488.649 67.699 485.369 71.02 481.392 71.02H478.194V70.364H481.392C485.041 70.364 487.993 67.371 487.993 63.722V40.27H488.649ZM478.194 64.788H481.392C481.966 64.788 482.417 64.296 482.417 63.722V40.27H483.073V63.722C483.073 64.624 482.376 65.444 481.392 65.444H478.194V64.788ZM483.073 31.25V38.138H482.417V31.25H483.073ZM487.993 38.138V31.25H488.649V38.138H487.993ZM491.586 51.135C491.586 44.862 496.67 39.778 502.943 39.778C507.945 39.778 512.168 42.976 513.685 47.486L500.36 55.563C501.139 56.014 502 56.26 502.943 56.26C504.993 56.26 506.756 55.03 507.576 53.308L508.191 53.595C507.289 55.563 505.28 56.916 502.943 56.916C501.754 56.916 500.647 56.547 499.745 55.932L495.317 58.638C497.244 60.606 499.95 61.836 502.943 61.836C507.207 61.836 510.938 59.294 512.66 55.645L513.234 55.932C511.43 59.827 507.494 62.492 502.943 62.492C496.67 62.492 491.586 57.408 491.586 51.135ZM492.242 51.135C492.242 52.324 492.447 53.431 492.775 54.497L497.203 51.791C497.162 51.586 497.162 51.34 497.162 51.135C497.162 47.937 499.745 45.354 502.943 45.354C504.132 45.354 505.28 45.723 506.182 46.338L510.569 43.673C508.642 41.664 505.936 40.434 502.943 40.434C497.039 40.434 492.242 45.231 492.242 51.135ZM493.021 55.112C493.472 56.219 494.087 57.244 494.866 58.146L499.171 55.522C498.269 54.743 497.613 53.677 497.326 52.488L493.021 55.112ZM497.818 51.135V51.422L505.567 46.707C504.788 46.256 503.886 46.01 502.943 46.01C500.114 46.01 497.818 48.306 497.818 51.135ZM497.9 52.16C498.146 53.349 498.843 54.415 499.786 55.153L507.986 50.151C507.74 48.962 507.084 47.896 506.141 47.117L497.9 52.16ZM506.756 46.789C507.658 47.568 508.314 48.593 508.56 49.823L512.906 47.158C512.455 46.051 511.799 45.067 511.061 44.165L506.756 46.789ZM526.543 45.846V46.502H525.354C522.853 46.502 520.721 48.634 520.721 51.135C520.721 53.636 522.853 55.768 525.354 55.768H526.543V56.424H525.354C522.484 56.424 520.065 54.005 520.065 51.135C520.065 48.265 522.484 45.846 525.354 45.846H526.543ZM526.543 40.926H525.354C519.737 40.926 515.145 45.518 515.145 51.135C515.145 56.752 519.737 61.344 525.354 61.344H526.543V62H525.354C519.368 62 514.489 57.121 514.489 51.135C514.489 45.149 519.368 40.27 525.354 40.27H526.543V40.926ZM532.062 40.926H528.823V40.27H532.062V33.3H532.718V40.27H537.638V33.3H538.294V40.27H541.533V40.926H538.294V45.846H541.533V46.502H538.294V62H537.638V46.502H532.718V62H532.062V46.502H528.823V45.846H532.062V40.926ZM537.638 40.926H532.718V45.846H537.638V40.926ZM559.879 61.344H571.4V62H553.647V33.3H554.303V55.768H559.223V33.3H559.879V55.768H571.4V56.424H559.879V61.344ZM554.303 61.344H559.223V56.424H554.303V61.344ZM589.522 42.115V60.155C592.269 58.474 594.442 55.071 594.442 51.135C594.442 47.199 592.269 43.796 589.522 42.115ZM583.741 39.778C585.586 39.778 587.308 40.229 588.866 41.008V40.27H589.522V41.377C591.818 42.648 593.581 44.944 594.442 47.322V40.27H595.098V62H594.442V54.907C593.622 57.244 591.818 59.663 589.522 60.934V62H588.866V61.262C587.308 62.041 585.586 62.492 583.741 62.492C577.468 62.492 572.384 57.408 572.384 51.135C572.384 44.862 577.468 39.778 583.741 39.778ZM583.741 61.836C585.586 61.836 587.349 61.385 588.866 60.565V53.841C587.882 55.645 585.955 56.916 583.741 56.916C580.543 56.916 577.96 54.333 577.96 51.135C577.96 47.937 580.543 45.354 583.741 45.354C585.955 45.354 587.882 46.625 588.866 48.47V41.746C587.349 40.926 585.586 40.434 583.741 40.434C577.837 40.434 573.04 45.231 573.04 51.135C573.04 57.039 577.837 61.836 583.741 61.836ZM583.741 56.26C586.611 56.26 588.866 53.964 588.866 51.135C588.866 48.306 586.611 46.01 583.741 46.01C580.912 46.01 578.616 48.306 578.616 51.135C578.616 53.964 580.912 56.26 583.741 56.26ZM610.226 62.492C603.912 62.492 598.828 57.367 598.828 51.135V31.25H599.484V47.363C600.345 44.985 602.108 42.689 604.404 41.418V31.25H605.06V41.008C606.618 40.229 608.381 39.778 610.226 39.778C616.499 39.778 621.583 44.862 621.583 51.135C621.583 57.408 616.499 62.492 610.226 62.492ZM610.226 56.916C607.028 56.916 604.404 54.292 604.404 51.135V42.156C601.657 43.837 599.484 47.24 599.484 51.176C599.484 57.039 604.24 61.836 610.226 61.836C616.13 61.836 620.927 57.039 620.927 51.135C620.927 45.231 616.13 40.434 610.226 40.434C608.381 40.434 606.577 40.926 605.06 41.746V48.511C606.044 46.625 608.012 45.354 610.226 45.354C613.424 45.354 616.007 47.937 616.007 51.135C616.007 54.333 613.424 56.916 610.226 56.916ZM610.226 46.01C607.356 46.01 605.06 48.306 605.06 51.135C605.06 53.964 607.356 56.26 610.226 56.26C613.055 56.26 615.351 53.964 615.351 51.135C615.351 48.306 613.055 46.01 610.226 46.01ZM645.16 40.27L630.974 71.02H630.277L632.819 65.526L629.949 59.376L624.578 71.02H623.881L629.621 58.597L621.052 40.27H621.749L629.949 57.859L632.778 51.75L627.448 40.27H628.145L633.147 50.971L638.067 40.27H638.764L633.475 51.709L636.345 57.859L644.463 40.27H645.16ZM633.188 64.747L636.017 58.638L633.147 52.488L630.318 58.638L633.188 64.747ZM652.702 62V42.689C650.488 44.042 647.782 46.83 647.782 51.709V62H647.126V40.27H647.782V47.732C648.807 44.903 650.406 43.304 652.702 41.951V40.27H653.358V41.582C654.998 40.762 656.761 40.352 658.483 40.352V41.008C656.761 41.008 654.957 41.459 653.358 42.32V49.044C654.301 47.199 656.269 45.928 658.483 45.928V46.584C655.613 46.584 653.358 48.88 653.358 51.709V62H652.702ZM660.94 62V40.27H661.596V62H660.94ZM667.172 40.27V62H666.516V40.27H667.172ZM666.516 38.138V31.25H667.172V38.138H666.516ZM661.596 31.25V38.138H660.94V31.25H661.596ZM671.35 62V40.27H672.006V46.461C672.908 44.124 674.671 42.197 676.926 41.09V40.27H677.582V40.762C678.73 40.311 679.96 40.065 681.272 40.065C686.725 40.065 691.194 44.534 691.194 49.987V62H690.538V49.987C690.538 44.903 686.356 40.721 681.272 40.721C679.96 40.721 678.73 41.008 677.582 41.5V47.691C678.361 46.461 679.714 45.641 681.272 45.641C683.65 45.641 685.618 47.609 685.618 49.987V62H684.962V49.987C684.962 47.978 683.281 46.297 681.272 46.297C679.263 46.297 677.582 47.978 677.582 49.987V62H676.926V41.828C674.015 43.386 672.006 46.461 672.006 49.987V62H671.35ZM696.703 40.926H693.464V40.27H696.703V33.3H697.359V40.27H702.279V33.3H702.935V40.27H706.174V40.926H702.935V45.846H706.174V46.502H702.935V62H702.279V46.502H697.359V62H696.703V46.502H693.464V45.846H696.703V40.926ZM702.279 40.926H697.359V45.846H702.279V40.926ZM709.147 62V31.25H709.803V46.461C710.705 44.124 712.468 42.197 714.723 41.09V31.25H715.379V40.762C716.527 40.311 717.757 40.065 719.069 40.065C724.522 40.065 728.991 44.534 728.991 49.987V62H728.335V49.987C728.335 44.903 724.153 40.721 719.069 40.721C717.757 40.721 716.527 41.008 715.379 41.5V47.691C716.158 46.461 717.511 45.641 719.069 45.641C721.447 45.641 723.415 47.609 723.415 49.987V62H722.759V49.987C722.759 47.978 721.078 46.297 719.069 46.297C717.06 46.297 715.379 47.978 715.379 49.987V62H714.723V41.828C711.812 43.386 709.803 46.461 709.803 49.987V62H709.147ZM748.223 39.532V45.928H751.134C752.938 45.928 754.332 44.534 754.332 42.73C754.332 40.926 752.938 39.532 751.134 39.532H748.223ZM748.223 38.876H751.134C753.266 38.876 754.988 40.598 754.988 42.73C754.988 44.862 753.266 46.584 751.134 46.584H748.223V51.504H751.134C756.054 51.504 759.908 47.65 759.908 42.73C759.908 37.81 756.054 33.956 751.134 33.956H748.223V38.876ZM742.647 52.16V62H741.991V33.3H751.134C756.382 33.3 760.564 37.482 760.564 42.73C760.564 47.978 756.382 52.16 751.134 52.16H748.223V62H747.567V52.16H742.647ZM742.647 39.532V45.928H747.567V39.532H742.647ZM747.567 33.956H742.647V38.876H747.567V33.956ZM747.567 46.584H742.647V51.504H747.567V46.584ZM768.896 62V42.689C766.682 44.042 763.976 46.83 763.976 51.709V62H763.32V40.27H763.976V47.732C765.001 44.903 766.6 43.304 768.896 41.951V40.27H769.552V41.582C771.192 40.762 772.955 40.352 774.677 40.352V41.008C772.955 41.008 771.151 41.459 769.552 42.32V49.044C770.495 47.199 772.463 45.928 774.677 45.928V46.584C771.807 46.584 769.552 48.88 769.552 51.709V62H768.896ZM786.82 62.492C780.547 62.492 775.463 57.408 775.463 51.135C775.463 44.862 780.547 39.778 786.82 39.778C793.093 39.778 798.177 44.862 798.177 51.135C798.177 57.408 793.093 62.492 786.82 62.492ZM786.82 61.836C792.724 61.836 797.521 57.039 797.521 51.135C797.521 45.231 792.724 40.434 786.82 40.434C780.916 40.434 776.119 45.231 776.119 51.135C776.119 57.039 780.916 61.836 786.82 61.836ZM786.82 56.916C783.622 56.916 781.039 54.333 781.039 51.135C781.039 47.937 783.622 45.354 786.82 45.354C790.018 45.354 792.601 47.937 792.601 51.135C792.601 54.333 790.018 56.916 786.82 56.916ZM786.82 56.26C789.649 56.26 791.945 53.964 791.945 51.135C791.945 48.306 789.649 46.01 786.82 46.01C783.991 46.01 781.695 48.306 781.695 51.135C781.695 53.964 783.991 56.26 786.82 56.26ZM807.84 40.27V63.722C807.84 67.699 804.56 71.02 800.583 71.02H797.385V70.364H800.583C804.232 70.364 807.184 67.371 807.184 63.722V40.27H807.84ZM797.385 64.788H800.583C801.157 64.788 801.608 64.296 801.608 63.722V40.27H802.264V63.722C802.264 64.624 801.567 65.444 800.583 65.444H797.385V64.788ZM802.264 31.25V38.138H801.608V31.25H802.264ZM807.184 38.138V31.25H807.84V38.138H807.184ZM810.777 51.135C810.777 44.862 815.861 39.778 822.134 39.778C827.136 39.778 831.359 42.976 832.876 47.486L819.551 55.563C820.33 56.014 821.191 56.26 822.134 56.26C824.184 56.26 825.947 55.03 826.767 53.308L827.382 53.595C826.48 55.563 824.471 56.916 822.134 56.916C820.945 56.916 819.838 56.547 818.936 55.932L814.508 58.638C816.435 60.606 819.141 61.836 822.134 61.836C826.398 61.836 830.129 59.294 831.851 55.645L832.425 55.932C830.621 59.827 826.685 62.492 822.134 62.492C815.861 62.492 810.777 57.408 810.777 51.135ZM811.433 51.135C811.433 52.324 811.638 53.431 811.966 54.497L816.394 51.791C816.353 51.586 816.353 51.34 816.353 51.135C816.353 47.937 818.936 45.354 822.134 45.354C823.323 45.354 824.471 45.723 825.373 46.338L829.76 43.673C827.833 41.664 825.127 40.434 822.134 40.434C816.23 40.434 811.433 45.231 811.433 51.135ZM812.212 55.112C812.663 56.219 813.278 57.244 814.057 58.146L818.362 55.522C817.46 54.743 816.804 53.677 816.517 52.488L812.212 55.112ZM817.009 51.135V51.422L824.758 46.707C823.979 46.256 823.077 46.01 822.134 46.01C819.305 46.01 817.009 48.306 817.009 51.135ZM817.091 52.16C817.337 53.349 818.034 54.415 818.977 55.153L827.177 50.151C826.931 48.962 826.275 47.896 825.332 47.117L817.091 52.16ZM825.947 46.789C826.849 47.568 827.505 48.593 827.751 49.823L832.097 47.158C831.646 46.051 830.99 45.067 830.252 44.165L825.947 46.789ZM845.734 45.846V46.502H844.545C842.044 46.502 839.912 48.634 839.912 51.135C839.912 53.636 842.044 55.768 844.545 55.768H845.734V56.424H844.545C841.675 56.424 839.256 54.005 839.256 51.135C839.256 48.265 841.675 45.846 844.545 45.846H845.734ZM845.734 40.926H844.545C838.928 40.926 834.336 45.518 834.336 51.135C834.336 56.752 838.928 61.344 844.545 61.344H845.734V62H844.545C838.559 62 833.68 57.121 833.68 51.135C833.68 45.149 838.559 40.27 844.545 40.27H845.734V40.926ZM851.253 40.926H848.014V40.27H851.253V33.3H851.909V40.27H856.829V33.3H857.485V40.27H860.724V40.926H857.485V45.846H860.724V46.502H857.485V62H856.829V46.502H851.909V62H851.253V46.502H848.014V45.846H851.253V40.926ZM856.829 40.926H851.909V45.846H856.829V40.926ZM879.071 61.344H890.592V62H872.839V33.3H873.495V55.768H878.415V33.3H879.071V55.768H890.592V56.424H879.071V61.344ZM873.495 61.344H878.415V56.424H873.495V61.344ZM908.714 42.115V60.155C911.461 58.474 913.634 55.071 913.634 51.135C913.634 47.199 911.461 43.796 908.714 42.115ZM902.933 39.778C904.778 39.778 906.5 40.229 908.058 41.008V40.27H908.714V41.377C911.01 42.648 912.773 44.944 913.634 47.322V40.27H914.29V62H913.634V54.907C912.814 57.244 911.01 59.663 908.714 60.934V62H908.058V61.262C906.5 62.041 904.778 62.492 902.933 62.492C896.66 62.492 891.576 57.408 891.576 51.135C891.576 44.862 896.66 39.778 902.933 39.778ZM902.933 61.836C904.778 61.836 906.541 61.385 908.058 60.565V53.841C907.074 55.645 905.147 56.916 902.933 56.916C899.735 56.916 897.152 54.333 897.152 51.135C897.152 47.937 899.735 45.354 902.933 45.354C905.147 45.354 907.074 46.625 908.058 48.47V41.746C906.541 40.926 904.778 40.434 902.933 40.434C897.029 40.434 892.232 45.231 892.232 51.135C892.232 57.039 897.029 61.836 902.933 61.836ZM902.933 56.26C905.803 56.26 908.058 53.964 908.058 51.135C908.058 48.306 905.803 46.01 902.933 46.01C900.104 46.01 897.808 48.306 897.808 51.135C897.808 53.964 900.104 56.26 902.933 56.26ZM929.418 62.492C923.104 62.492 918.02 57.367 918.02 51.135V31.25H918.676V47.363C919.537 44.985 921.3 42.689 923.596 41.418V31.25H924.252V41.008C925.81 40.229 927.573 39.778 929.418 39.778C935.691 39.778 940.775 44.862 940.775 51.135C940.775 57.408 935.691 62.492 929.418 62.492ZM929.418 56.916C926.22 56.916 923.596 54.292 923.596 51.135V42.156C920.849 43.837 918.676 47.24 918.676 51.176C918.676 57.039 923.432 61.836 929.418 61.836C935.322 61.836 940.119 57.039 940.119 51.135C940.119 45.231 935.322 40.434 929.418 40.434C927.573 40.434 925.769 40.926 924.252 41.746V48.511C925.236 46.625 927.204 45.354 929.418 45.354C932.616 45.354 935.199 47.937 935.199 51.135C935.199 54.333 932.616 56.916 929.418 56.916ZM929.418 46.01C926.548 46.01 924.252 48.306 924.252 51.135C924.252 53.964 926.548 56.26 929.418 56.26C932.247 56.26 934.543 53.964 934.543 51.135C934.543 48.306 932.247 46.01 929.418 46.01ZM964.351 40.27L950.165 71.02H949.468L952.01 65.526L949.14 59.376L943.769 71.02H943.072L948.812 58.597L940.243 40.27H940.94L949.14 57.859L951.969 51.75L946.639 40.27H947.336L952.338 50.971L957.258 40.27H957.955L952.666 51.709L955.536 57.859L963.654 40.27H964.351ZM952.379 64.747L955.208 58.638L952.338 52.488L949.509 58.638L952.379 64.747ZM971.894 62V42.689C969.68 44.042 966.974 46.83 966.974 51.709V62H966.318V40.27H966.974V47.732C967.999 44.903 969.598 43.304 971.894 41.951V40.27H972.55V41.582C974.19 40.762 975.953 40.352 977.675 40.352V41.008C975.953 41.008 974.149 41.459 972.55 42.32V49.044C973.493 47.199 975.461 45.928 977.675 45.928V46.584C974.805 46.584 972.55 48.88 972.55 51.709V62H971.894ZM980.131 62V40.27H980.787V62H980.131ZM986.363 40.27V62H985.707V40.27H986.363ZM985.707 38.138V31.25H986.363V38.138H985.707ZM980.787 31.25V38.138H980.131V31.25H980.787ZM990.541 62V40.27H991.197V46.461C992.099 44.124 993.862 42.197 996.117 41.09V40.27H996.773V40.762C997.921 40.311 999.151 40.065 1000.46 40.065C1005.92 40.065 1010.39 44.534 1010.39 49.987V62H1009.73V49.987C1009.73 44.903 1005.55 40.721 1000.46 40.721C999.151 40.721 997.921 41.008 996.773 41.5V47.691C997.552 46.461 998.905 45.641 1000.46 45.641C1002.84 45.641 1004.81 47.609 1004.81 49.987V62H1004.15V49.987C1004.15 47.978 1002.47 46.297 1000.46 46.297C998.454 46.297 996.773 47.978 996.773 49.987V62H996.117V41.828C993.206 43.386 991.197 46.461 991.197 49.987V62H990.541ZM1015.89 40.926H1012.65V40.27H1015.89V33.3H1016.55V40.27H1021.47V33.3H1022.13V40.27H1025.36V40.926H1022.13V45.846H1025.36V46.502H1022.13V62H1021.47V46.502H1016.55V62H1015.89V46.502H1012.65V45.846H1015.89V40.926ZM1021.47 40.926H1016.55V45.846H1021.47V40.926ZM1028.34 62V31.25H1028.99V46.461C1029.9 44.124 1031.66 42.197 1033.91 41.09V31.25H1034.57V40.762C1035.72 40.311 1036.95 40.065 1038.26 40.065C1043.71 40.065 1048.18 44.534 1048.18 49.987V62H1047.53V49.987C1047.53 44.903 1043.34 40.721 1038.26 40.721C1036.95 40.721 1035.72 41.008 1034.57 41.5V47.691C1035.35 46.461 1036.7 45.641 1038.26 45.641C1040.64 45.641 1042.61 47.609 1042.61 49.987V62H1041.95V49.987C1041.95 47.978 1040.27 46.297 1038.26 46.297C1036.25 46.297 1034.57 47.978 1034.57 49.987V62H1033.91V41.828C1031 43.386 1028.99 46.461 1028.99 49.987V62H1028.34ZM1067.41 39.532V45.928H1070.33C1072.13 45.928 1073.52 44.534 1073.52 42.73C1073.52 40.926 1072.13 39.532 1070.33 39.532H1067.41ZM1067.41 38.876H1070.33C1072.46 38.876 1074.18 40.598 1074.18 42.73C1074.18 44.862 1072.46 46.584 1070.33 46.584H1067.41V51.504H1070.33C1075.25 51.504 1079.1 47.65 1079.1 42.73C1079.1 37.81 1075.25 33.956 1070.33 33.956H1067.41V38.876ZM1061.84 52.16V62H1061.18V33.3H1070.33C1075.57 33.3 1079.76 37.482 1079.76 42.73C1079.76 47.978 1075.57 52.16 1070.33 52.16H1067.41V62H1066.76V52.16H1061.84ZM1061.84 39.532V45.928H1066.76V39.532H1061.84ZM1066.76 33.956H1061.84V38.876H1066.76V33.956ZM1066.76 46.584H1061.84V51.504H1066.76V46.584ZM1088.09 62V42.689C1085.87 44.042 1083.17 46.83 1083.17 51.709V62H1082.51V40.27H1083.17V47.732C1084.19 44.903 1085.79 43.304 1088.09 41.951V40.27H1088.74V41.582C1090.38 40.762 1092.15 40.352 1093.87 40.352V41.008C1092.15 41.008 1090.34 41.459 1088.74 42.32V49.044C1089.69 47.199 1091.65 45.928 1093.87 45.928V46.584C1091 46.584 1088.74 48.88 1088.74 51.709V62H1088.09ZM1106.01 62.492C1099.74 62.492 1094.65 57.408 1094.65 51.135C1094.65 44.862 1099.74 39.778 1106.01 39.778C1112.28 39.778 1117.37 44.862 1117.37 51.135C1117.37 57.408 1112.28 62.492 1106.01 62.492ZM1106.01 61.836C1111.91 61.836 1116.71 57.039 1116.71 51.135C1116.71 45.231 1111.91 40.434 1106.01 40.434C1100.11 40.434 1095.31 45.231 1095.31 51.135C1095.31 57.039 1100.11 61.836 1106.01 61.836ZM1106.01 56.916C1102.81 56.916 1100.23 54.333 1100.23 51.135C1100.23 47.937 1102.81 45.354 1106.01 45.354C1109.21 45.354 1111.79 47.937 1111.79 51.135C1111.79 54.333 1109.21 56.916 1106.01 56.916ZM1106.01 56.26C1108.84 56.26 1111.14 53.964 1111.14 51.135C1111.14 48.306 1108.84 46.01 1106.01 46.01C1103.18 46.01 1100.89 48.306 1100.89 51.135C1100.89 53.964 1103.18 56.26 1106.01 56.26ZM1127.03 40.27V63.722C1127.03 67.699 1123.75 71.02 1119.77 71.02H1116.58V70.364H1119.77C1123.42 70.364 1126.38 67.371 1126.38 63.722V40.27H1127.03ZM1116.58 64.788H1119.77C1120.35 64.788 1120.8 64.296 1120.8 63.722V40.27H1121.46V63.722C1121.46 64.624 1120.76 65.444 1119.77 65.444H1116.58V64.788ZM1121.46 31.25V38.138H1120.8V31.25H1121.46ZM1126.38 38.138V31.25H1127.03V38.138H1126.38ZM1129.97 51.135C1129.97 44.862 1135.05 39.778 1141.33 39.778C1146.33 39.778 1150.55 42.976 1152.07 47.486L1138.74 55.563C1139.52 56.014 1140.38 56.26 1141.33 56.26C1143.38 56.26 1145.14 55.03 1145.96 53.308L1146.57 53.595C1145.67 55.563 1143.66 56.916 1141.33 56.916C1140.14 56.916 1139.03 56.547 1138.13 55.932L1133.7 58.638C1135.63 60.606 1138.33 61.836 1141.33 61.836C1145.59 61.836 1149.32 59.294 1151.04 55.645L1151.62 55.932C1149.81 59.827 1145.88 62.492 1141.33 62.492C1135.05 62.492 1129.97 57.408 1129.97 51.135ZM1130.62 51.135C1130.62 52.324 1130.83 53.431 1131.16 54.497L1135.59 51.791C1135.54 51.586 1135.54 51.34 1135.54 51.135C1135.54 47.937 1138.13 45.354 1141.33 45.354C1142.51 45.354 1143.66 45.723 1144.56 46.338L1148.95 43.673C1147.02 41.664 1144.32 40.434 1141.33 40.434C1135.42 40.434 1130.62 45.231 1130.62 51.135ZM1131.4 55.112C1131.85 56.219 1132.47 57.244 1133.25 58.146L1137.55 55.522C1136.65 54.743 1136 53.677 1135.71 52.488L1131.4 55.112ZM1136.2 51.135V51.422L1143.95 46.707C1143.17 46.256 1142.27 46.01 1141.33 46.01C1138.5 46.01 1136.2 48.306 1136.2 51.135ZM1136.28 52.16C1136.53 53.349 1137.23 54.415 1138.17 55.153L1146.37 50.151C1146.12 48.962 1145.47 47.896 1144.52 47.117L1136.28 52.16ZM1145.14 46.789C1146.04 47.568 1146.7 48.593 1146.94 49.823L1151.29 47.158C1150.84 46.051 1150.18 45.067 1149.44 44.165L1145.14 46.789ZM1164.93 45.846V46.502H1163.74C1161.24 46.502 1159.1 48.634 1159.1 51.135C1159.1 53.636 1161.24 55.768 1163.74 55.768H1164.93V56.424H1163.74C1160.87 56.424 1158.45 54.005 1158.45 51.135C1158.45 48.265 1160.87 45.846 1163.74 45.846H1164.93ZM1164.93 40.926H1163.74C1158.12 40.926 1153.53 45.518 1153.53 51.135C1153.53 56.752 1158.12 61.344 1163.74 61.344H1164.93V62H1163.74C1157.75 62 1152.87 57.121 1152.87 51.135C1152.87 45.149 1157.75 40.27 1163.74 40.27H1164.93V40.926ZM1170.44 40.926H1167.21V40.27H1170.44V33.3H1171.1V40.27H1176.02V33.3H1176.68V40.27H1179.92V40.926H1176.68V45.846H1179.92V46.502H1176.68V62H1176.02V46.502H1171.1V62H1170.44V46.502H1167.21V45.846H1170.44V40.926ZM1176.02 40.926H1171.1V45.846H1176.02V40.926ZM1198.26 61.344H1209.78V62H1192.03V33.3H1192.69V55.768H1197.61V33.3H1198.26V55.768H1209.78V56.424H1198.26V61.344ZM1192.69 61.344H1197.61V56.424H1192.69V61.344ZM1227.91 42.115V60.155C1230.65 58.474 1232.83 55.071 1232.83 51.135C1232.83 47.199 1230.65 43.796 1227.91 42.115ZM1222.12 39.778C1223.97 39.778 1225.69 40.229 1227.25 41.008V40.27H1227.91V41.377C1230.2 42.648 1231.96 44.944 1232.83 47.322V40.27H1233.48V62H1232.83V54.907C1232.01 57.244 1230.2 59.663 1227.91 60.934V62H1227.25V61.262C1225.69 62.041 1223.97 62.492 1222.12 62.492C1215.85 62.492 1210.77 57.408 1210.77 51.135C1210.77 44.862 1215.85 39.778 1222.12 39.778ZM1222.12 61.836C1223.97 61.836 1225.73 61.385 1227.25 60.565V53.841C1226.27 55.645 1224.34 56.916 1222.12 56.916C1218.93 56.916 1216.34 54.333 1216.34 51.135C1216.34 47.937 1218.93 45.354 1222.12 45.354C1224.34 45.354 1226.27 46.625 1227.25 48.47V41.746C1225.73 40.926 1223.97 40.434 1222.12 40.434C1216.22 40.434 1211.42 45.231 1211.42 51.135C1211.42 57.039 1216.22 61.836 1222.12 61.836ZM1222.12 56.26C1224.99 56.26 1227.25 53.964 1227.25 51.135C1227.25 48.306 1224.99 46.01 1222.12 46.01C1219.3 46.01 1217 48.306 1217 51.135C1217 53.964 1219.3 56.26 1222.12 56.26ZM1248.61 62.492C1242.3 62.492 1237.21 57.367 1237.21 51.135V31.25H1237.87V47.363C1238.73 44.985 1240.49 42.689 1242.79 41.418V31.25H1243.44V41.008C1245 40.229 1246.76 39.778 1248.61 39.778C1254.88 39.778 1259.97 44.862 1259.97 51.135C1259.97 57.408 1254.88 62.492 1248.61 62.492ZM1248.61 56.916C1245.41 56.916 1242.79 54.292 1242.79 51.135V42.156C1240.04 43.837 1237.87 47.24 1237.87 51.176C1237.87 57.039 1242.62 61.836 1248.61 61.836C1254.51 61.836 1259.31 57.039 1259.31 51.135C1259.31 45.231 1254.51 40.434 1248.61 40.434C1246.76 40.434 1244.96 40.926 1243.44 41.746V48.511C1244.43 46.625 1246.4 45.354 1248.61 45.354C1251.81 45.354 1254.39 47.937 1254.39 51.135C1254.39 54.333 1251.81 56.916 1248.61 56.916ZM1248.61 46.01C1245.74 46.01 1243.44 48.306 1243.44 51.135C1243.44 53.964 1245.74 56.26 1248.61 56.26C1251.44 56.26 1253.73 53.964 1253.73 51.135C1253.73 48.306 1251.44 46.01 1248.61 46.01ZM1283.54 40.27L1269.36 71.02H1268.66L1271.2 65.526L1268.33 59.376L1262.96 71.02H1262.26L1268 58.597L1259.43 40.27H1260.13L1268.33 57.859L1271.16 51.75L1265.83 40.27H1266.53L1271.53 50.971L1276.45 40.27H1277.15L1271.86 51.709L1274.73 57.859L1282.85 40.27H1283.54ZM1271.57 64.747L1274.4 58.638L1271.53 52.488L1268.7 58.638L1271.57 64.747ZM1291.08 62V42.689C1288.87 44.042 1286.16 46.83 1286.16 51.709V62H1285.51V40.27H1286.16V47.732C1287.19 44.903 1288.79 43.304 1291.08 41.951V40.27H1291.74V41.582C1293.38 40.762 1295.14 40.352 1296.87 40.352V41.008C1295.14 41.008 1293.34 41.459 1291.74 42.32V49.044C1292.68 47.199 1294.65 45.928 1296.87 45.928V46.584C1294 46.584 1291.74 48.88 1291.74 51.709V62H1291.08ZM1299.32 62V40.27H1299.98V62H1299.32ZM1305.55 40.27V62H1304.9V40.27H1305.55ZM1304.9 38.138V31.25H1305.55V38.138H1304.9ZM1299.98 31.25V38.138H1299.32V31.25H1299.98ZM1309.73 62V40.27H1310.39V46.461C1311.29 44.124 1313.05 42.197 1315.31 41.09V40.27H1315.96V40.762C1317.11 40.311 1318.34 40.065 1319.65 40.065C1325.11 40.065 1329.58 44.534 1329.58 49.987V62H1328.92V49.987C1328.92 44.903 1324.74 40.721 1319.65 40.721C1318.34 40.721 1317.11 41.008 1315.96 41.5V47.691C1316.74 46.461 1318.1 45.641 1319.65 45.641C1322.03 45.641 1324 47.609 1324 49.987V62H1323.34V49.987C1323.34 47.978 1321.66 46.297 1319.65 46.297C1317.65 46.297 1315.96 47.978 1315.96 49.987V62H1315.31V41.828C1312.4 43.386 1310.39 46.461 1310.39 49.987V62H1309.73ZM1335.09 40.926H1331.85V40.27H1335.09V33.3H1335.74V40.27H1340.66V33.3H1341.32V40.27H1344.56V40.926H1341.32V45.846H1344.56V46.502H1341.32V62H1340.66V46.502H1335.74V62H1335.09V46.502H1331.85V45.846H1335.09V40.926ZM1340.66 40.926H1335.74V45.846H1340.66V40.926ZM1347.53 62V31.25H1348.19V46.461C1349.09 44.124 1350.85 42.197 1353.11 41.09V31.25H1353.76V40.762C1354.91 40.311 1356.14 40.065 1357.45 40.065C1362.9 40.065 1367.37 44.534 1367.37 49.987V62H1366.72V49.987C1366.72 44.903 1362.54 40.721 1357.45 40.721C1356.14 40.721 1354.91 41.008 1353.76 41.5V47.691C1354.54 46.461 1355.89 45.641 1357.45 45.641C1359.83 45.641 1361.8 47.609 1361.8 49.987V62H1361.14V49.987C1361.14 47.978 1359.46 46.297 1357.45 46.297C1355.44 46.297 1353.76 47.978 1353.76 49.987V62H1353.11V41.828C1350.19 43.386 1348.19 46.461 1348.19 49.987V62H1347.53ZM1386.61 39.532V45.928H1389.52C1391.32 45.928 1392.72 44.534 1392.72 42.73C1392.72 40.926 1391.32 39.532 1389.52 39.532H1386.61ZM1386.61 38.876H1389.52C1391.65 38.876 1393.37 40.598 1393.37 42.73C1393.37 44.862 1391.65 46.584 1389.52 46.584H1386.61V51.504H1389.52C1394.44 51.504 1398.29 47.65 1398.29 42.73C1398.29 37.81 1394.44 33.956 1389.52 33.956H1386.61V38.876ZM1381.03 52.16V62H1380.37V33.3H1389.52C1394.77 33.3 1398.95 37.482 1398.95 42.73C1398.95 47.978 1394.77 52.16 1389.52 52.16H1386.61V62H1385.95V52.16H1381.03ZM1381.03 39.532V45.928H1385.95V39.532H1381.03ZM1385.95 33.956H1381.03V38.876H1385.95V33.956ZM1385.95 46.584H1381.03V51.504H1385.95V46.584ZM1407.28 62V42.689C1405.06 44.042 1402.36 46.83 1402.36 51.709V62H1401.7V40.27H1402.36V47.732C1403.38 44.903 1404.98 43.304 1407.28 41.951V40.27H1407.93V41.582C1409.57 40.762 1411.34 40.352 1413.06 40.352V41.008C1411.34 41.008 1409.53 41.459 1407.93 42.32V49.044C1408.88 47.199 1410.85 45.928 1413.06 45.928V46.584C1410.19 46.584 1407.93 48.88 1407.93 51.709V62H1407.28ZM1425.2 62.492C1418.93 62.492 1413.85 57.408 1413.85 51.135C1413.85 44.862 1418.93 39.778 1425.2 39.778C1431.48 39.778 1436.56 44.862 1436.56 51.135C1436.56 57.408 1431.48 62.492 1425.2 62.492ZM1425.2 61.836C1431.11 61.836 1435.9 57.039 1435.9 51.135C1435.9 45.231 1431.11 40.434 1425.2 40.434C1419.3 40.434 1414.5 45.231 1414.5 51.135C1414.5 57.039 1419.3 61.836 1425.2 61.836ZM1425.2 56.916C1422 56.916 1419.42 54.333 1419.42 51.135C1419.42 47.937 1422 45.354 1425.2 45.354C1428.4 45.354 1430.98 47.937 1430.98 51.135C1430.98 54.333 1428.4 56.916 1425.2 56.916ZM1425.2 56.26C1428.03 56.26 1430.33 53.964 1430.33 51.135C1430.33 48.306 1428.03 46.01 1425.2 46.01C1422.37 46.01 1420.08 48.306 1420.08 51.135C1420.08 53.964 1422.37 56.26 1425.2 56.26ZM1446.22 40.27V63.722C1446.22 67.699 1442.94 71.02 1438.97 71.02H1435.77V70.364H1438.97C1442.62 70.364 1445.57 67.371 1445.57 63.722V40.27H1446.22ZM1435.77 64.788H1438.97C1439.54 64.788 1439.99 64.296 1439.99 63.722V40.27H1440.65V63.722C1440.65 64.624 1439.95 65.444 1438.97 65.444H1435.77V64.788ZM1440.65 31.25V38.138H1439.99V31.25H1440.65ZM1445.57 38.138V31.25H1446.22V38.138H1445.57ZM1449.16 51.135C1449.16 44.862 1454.24 39.778 1460.52 39.778C1465.52 39.778 1469.74 42.976 1471.26 47.486L1457.93 55.563C1458.71 56.014 1459.57 56.26 1460.52 56.26C1462.57 56.26 1464.33 55.03 1465.15 53.308L1465.76 53.595C1464.86 55.563 1462.85 56.916 1460.52 56.916C1459.33 56.916 1458.22 56.547 1457.32 55.932L1452.89 58.638C1454.82 60.606 1457.52 61.836 1460.52 61.836C1464.78 61.836 1468.51 59.294 1470.23 55.645L1470.81 55.932C1469 59.827 1465.07 62.492 1460.52 62.492C1454.24 62.492 1449.16 57.408 1449.16 51.135ZM1449.82 51.135C1449.82 52.324 1450.02 53.431 1450.35 54.497L1454.78 51.791C1454.74 51.586 1454.74 51.34 1454.74 51.135C1454.74 47.937 1457.32 45.354 1460.52 45.354C1461.71 45.354 1462.85 45.723 1463.76 46.338L1468.14 43.673C1466.22 41.664 1463.51 40.434 1460.52 40.434C1454.61 40.434 1449.82 45.231 1449.82 51.135ZM1450.59 55.112C1451.05 56.219 1451.66 57.244 1452.44 58.146L1456.74 55.522C1455.84 54.743 1455.19 53.677 1454.9 52.488L1450.59 55.112ZM1455.39 51.135V51.422L1463.14 46.707C1462.36 46.256 1461.46 46.01 1460.52 46.01C1457.69 46.01 1455.39 48.306 1455.39 51.135ZM1455.47 52.16C1455.72 53.349 1456.42 54.415 1457.36 55.153L1465.56 50.151C1465.31 48.962 1464.66 47.896 1463.71 47.117L1455.47 52.16ZM1464.33 46.789C1465.23 47.568 1465.89 48.593 1466.13 49.823L1470.48 47.158C1470.03 46.051 1469.37 45.067 1468.63 44.165L1464.33 46.789ZM1484.12 45.846V46.502H1482.93C1480.43 46.502 1478.3 48.634 1478.3 51.135C1478.3 53.636 1480.43 55.768 1482.93 55.768H1484.12V56.424H1482.93C1480.06 56.424 1477.64 54.005 1477.64 51.135C1477.64 48.265 1480.06 45.846 1482.93 45.846H1484.12ZM1484.12 40.926H1482.93C1477.31 40.926 1472.72 45.518 1472.72 51.135C1472.72 56.752 1477.31 61.344 1482.93 61.344H1484.12V62H1482.93C1476.94 62 1472.06 57.121 1472.06 51.135C1472.06 45.149 1476.94 40.27 1482.93 40.27H1484.12V40.926ZM1489.64 40.926H1486.4V40.27H1489.64V33.3H1490.29V40.27H1495.21V33.3H1495.87V40.27H1499.11V40.926H1495.87V45.846H1499.11V46.502H1495.87V62H1495.21V46.502H1490.29V62H1489.64V46.502H1486.4V45.846H1489.64V40.926ZM1495.21 40.926H1490.29V45.846H1495.21V40.926ZM1517.45 61.344H1528.97V62H1511.22V33.3H1511.88V55.768H1516.8V33.3H1517.45V55.768H1528.97V56.424H1517.45V61.344ZM1511.88 61.344H1516.8V56.424H1511.88V61.344ZM1547.1 42.115V60.155C1549.84 58.474 1552.02 55.071 1552.02 51.135C1552.02 47.199 1549.84 43.796 1547.1 42.115ZM1541.32 39.778C1543.16 39.778 1544.88 40.229 1546.44 41.008V40.27H1547.1V41.377C1549.39 42.648 1551.16 44.944 1552.02 47.322V40.27H1552.67V62H1552.02V54.907C1551.2 57.244 1549.39 59.663 1547.1 60.934V62H1546.44V61.262C1544.88 62.041 1543.16 62.492 1541.32 62.492C1535.04 62.492 1529.96 57.408 1529.96 51.135C1529.96 44.862 1535.04 39.778 1541.32 39.778ZM1541.32 61.836C1543.16 61.836 1544.92 61.385 1546.44 60.565V53.841C1545.46 55.645 1543.53 56.916 1541.32 56.916C1538.12 56.916 1535.53 54.333 1535.53 51.135C1535.53 47.937 1538.12 45.354 1541.32 45.354C1543.53 45.354 1545.46 46.625 1546.44 48.47V41.746C1544.92 40.926 1543.16 40.434 1541.32 40.434C1535.41 40.434 1530.61 45.231 1530.61 51.135C1530.61 57.039 1535.41 61.836 1541.32 61.836ZM1541.32 56.26C1544.19 56.26 1546.44 53.964 1546.44 51.135C1546.44 48.306 1544.19 46.01 1541.32 46.01C1538.49 46.01 1536.19 48.306 1536.19 51.135C1536.19 53.964 1538.49 56.26 1541.32 56.26ZM1567.8 62.492C1561.49 62.492 1556.4 57.367 1556.4 51.135V31.25H1557.06V47.363C1557.92 44.985 1559.68 42.689 1561.98 41.418V31.25H1562.63V41.008C1564.19 40.229 1565.96 39.778 1567.8 39.778C1574.07 39.778 1579.16 44.862 1579.16 51.135C1579.16 57.408 1574.07 62.492 1567.8 62.492ZM1567.8 56.916C1564.6 56.916 1561.98 54.292 1561.98 51.135V42.156C1559.23 43.837 1557.06 47.24 1557.06 51.176C1557.06 57.039 1561.81 61.836 1567.8 61.836C1573.7 61.836 1578.5 57.039 1578.5 51.135C1578.5 45.231 1573.7 40.434 1567.8 40.434C1565.96 40.434 1564.15 40.926 1562.63 41.746V48.511C1563.62 46.625 1565.59 45.354 1567.8 45.354C1571 45.354 1573.58 47.937 1573.58 51.135C1573.58 54.333 1571 56.916 1567.8 56.916ZM1567.8 46.01C1564.93 46.01 1562.63 48.306 1562.63 51.135C1562.63 53.964 1564.93 56.26 1567.8 56.26C1570.63 56.26 1572.93 53.964 1572.93 51.135C1572.93 48.306 1570.63 46.01 1567.8 46.01ZM1602.73 40.27L1588.55 71.02H1587.85L1590.39 65.526L1587.52 59.376L1582.15 71.02H1581.45L1587.19 58.597L1578.63 40.27H1579.32L1587.52 57.859L1590.35 51.75L1585.02 40.27H1585.72L1590.72 50.971L1595.64 40.27H1596.34L1591.05 51.709L1593.92 57.859L1602.04 40.27H1602.73ZM1590.76 64.747L1593.59 58.638L1590.72 52.488L1587.89 58.638L1590.76 64.747ZM1610.28 62V42.689C1608.06 44.042 1605.36 46.83 1605.36 51.709V62H1604.7V40.27H1605.36V47.732C1606.38 44.903 1607.98 43.304 1610.28 41.951V40.27H1610.93V41.582C1612.57 40.762 1614.34 40.352 1616.06 40.352V41.008C1614.34 41.008 1612.53 41.459 1610.93 42.32V49.044C1611.88 47.199 1613.84 45.928 1616.06 45.928V46.584C1613.19 46.584 1610.93 48.88 1610.93 51.709V62H1610.28ZM1618.51 62V40.27H1619.17V62H1618.51ZM1624.75 40.27V62H1624.09V40.27H1624.75ZM1624.09 38.138V31.25H1624.75V38.138H1624.09ZM1619.17 31.25V38.138H1618.51V31.25H1619.17ZM1628.92 62V40.27H1629.58V46.461C1630.48 44.124 1632.25 42.197 1634.5 41.09V40.27H1635.16V40.762C1636.3 40.311 1637.53 40.065 1638.85 40.065C1644.3 40.065 1648.77 44.534 1648.77 49.987V62H1648.11V49.987C1648.11 44.903 1643.93 40.721 1638.85 40.721C1637.53 40.721 1636.3 41.008 1635.16 41.5V47.691C1635.94 46.461 1637.29 45.641 1638.85 45.641C1641.22 45.641 1643.19 47.609 1643.19 49.987V62H1642.54V49.987C1642.54 47.978 1640.86 46.297 1638.85 46.297C1636.84 46.297 1635.16 47.978 1635.16 49.987V62H1634.5V41.828C1631.59 43.386 1629.58 46.461 1629.58 49.987V62H1628.92ZM1654.28 40.926H1651.04V40.27H1654.28V33.3H1654.93V40.27H1659.85V33.3H1660.51V40.27H1663.75V40.926H1660.51V45.846H1663.75V46.502H1660.51V62H1659.85V46.502H1654.93V62H1654.28V46.502H1651.04V45.846H1654.28V40.926ZM1659.85 40.926H1654.93V45.846H1659.85V40.926ZM1666.72 62V31.25H1667.38V46.461C1668.28 44.124 1670.04 42.197 1672.3 41.09V31.25H1672.95V40.762C1674.1 40.311 1675.33 40.065 1676.64 40.065C1682.1 40.065 1686.56 44.534 1686.56 49.987V62H1685.91V49.987C1685.91 44.903 1681.73 40.721 1676.64 40.721C1675.33 40.721 1674.1 41.008 1672.95 41.5V47.691C1673.73 46.461 1675.08 45.641 1676.64 45.641C1679.02 45.641 1680.99 47.609 1680.99 49.987V62H1680.33V49.987C1680.33 47.978 1678.65 46.297 1676.64 46.297C1674.63 46.297 1672.95 47.978 1672.95 49.987V62H1672.3V41.828C1669.39 43.386 1667.38 46.461 1667.38 49.987V62H1666.72ZM1705.8 39.532V45.928H1708.71C1710.51 45.928 1711.91 44.534 1711.91 42.73C1711.91 40.926 1710.51 39.532 1708.71 39.532H1705.8ZM1705.8 38.876H1708.71C1710.84 38.876 1712.56 40.598 1712.56 42.73C1712.56 44.862 1710.84 46.584 1708.71 46.584H1705.8V51.504H1708.71C1713.63 51.504 1717.48 47.65 1717.48 42.73C1717.48 37.81 1713.63 33.956 1708.71 33.956H1705.8V38.876ZM1700.22 52.16V62H1699.57V33.3H1708.71C1713.96 33.3 1718.14 37.482 1718.14 42.73C1718.14 47.978 1713.96 52.16 1708.71 52.16H1705.8V62H1705.14V52.16H1700.22ZM1700.22 39.532V45.928H1705.14V39.532H1700.22ZM1705.14 33.956H1700.22V38.876H1705.14V33.956ZM1705.14 46.584H1700.22V51.504H1705.14V46.584ZM1726.47 62V42.689C1724.26 44.042 1721.55 46.83 1721.55 51.709V62H1720.89V40.27H1721.55V47.732C1722.57 44.903 1724.17 43.304 1726.47 41.951V40.27H1727.13V41.582C1728.77 40.762 1730.53 40.352 1732.25 40.352V41.008C1730.53 41.008 1728.72 41.459 1727.13 42.32V49.044C1728.07 47.199 1730.04 45.928 1732.25 45.928V46.584C1729.38 46.584 1727.13 48.88 1727.13 51.709V62H1726.47ZM1744.39 62.492C1738.12 62.492 1733.04 57.408 1733.04 51.135C1733.04 44.862 1738.12 39.778 1744.39 39.778C1750.67 39.778 1755.75 44.862 1755.75 51.135C1755.75 57.408 1750.67 62.492 1744.39 62.492ZM1744.39 61.836C1750.3 61.836 1755.09 57.039 1755.09 51.135C1755.09 45.231 1750.3 40.434 1744.39 40.434C1738.49 40.434 1733.69 45.231 1733.69 51.135C1733.69 57.039 1738.49 61.836 1744.39 61.836ZM1744.39 56.916C1741.2 56.916 1738.61 54.333 1738.61 51.135C1738.61 47.937 1741.2 45.354 1744.39 45.354C1747.59 45.354 1750.17 47.937 1750.17 51.135C1750.17 54.333 1747.59 56.916 1744.39 56.916ZM1744.39 56.26C1747.22 56.26 1749.52 53.964 1749.52 51.135C1749.52 48.306 1747.22 46.01 1744.39 46.01C1741.56 46.01 1739.27 48.306 1739.27 51.135C1739.27 53.964 1741.56 56.26 1744.39 56.26ZM1765.41 40.27V63.722C1765.41 67.699 1762.13 71.02 1758.16 71.02H1754.96V70.364H1758.16C1761.81 70.364 1764.76 67.371 1764.76 63.722V40.27H1765.41ZM1754.96 64.788H1758.16C1758.73 64.788 1759.18 64.296 1759.18 63.722V40.27H1759.84V63.722C1759.84 64.624 1759.14 65.444 1758.16 65.444H1754.96V64.788ZM1759.84 31.25V38.138H1759.18V31.25H1759.84ZM1764.76 38.138V31.25H1765.41V38.138H1764.76ZM1768.35 51.135C1768.35 44.862 1773.44 39.778 1779.71 39.778C1784.71 39.778 1788.93 42.976 1790.45 47.486L1777.13 55.563C1777.9 56.014 1778.77 56.26 1779.71 56.26C1781.76 56.26 1783.52 55.03 1784.34 53.308L1784.96 53.595C1784.05 55.563 1782.05 56.916 1779.71 56.916C1778.52 56.916 1777.41 56.547 1776.51 55.932L1772.08 58.638C1774.01 60.606 1776.72 61.836 1779.71 61.836C1783.97 61.836 1787.7 59.294 1789.43 55.645L1790 55.932C1788.2 59.827 1784.26 62.492 1779.71 62.492C1773.44 62.492 1768.35 57.408 1768.35 51.135ZM1769.01 51.135C1769.01 52.324 1769.21 53.431 1769.54 54.497L1773.97 51.791C1773.93 51.586 1773.93 51.34 1773.93 51.135C1773.93 47.937 1776.51 45.354 1779.71 45.354C1780.9 45.354 1782.05 45.723 1782.95 46.338L1787.33 43.673C1785.41 41.664 1782.7 40.434 1779.71 40.434C1773.8 40.434 1769.01 45.231 1769.01 51.135ZM1769.79 55.112C1770.24 56.219 1770.85 57.244 1771.63 58.146L1775.94 55.522C1775.03 54.743 1774.38 53.677 1774.09 52.488L1769.79 55.112ZM1774.58 51.135V51.422L1782.33 46.707C1781.55 46.256 1780.65 46.01 1779.71 46.01C1776.88 46.01 1774.58 48.306 1774.58 51.135ZM1774.67 52.16C1774.91 53.349 1775.61 54.415 1776.55 55.153L1784.75 50.151C1784.51 48.962 1783.85 47.896 1782.91 47.117L1774.67 52.16ZM1783.52 46.789C1784.42 47.568 1785.08 48.593 1785.33 49.823L1789.67 47.158C1789.22 46.051 1788.56 45.067 1787.83 44.165L1783.52 46.789ZM1803.31 45.846V46.502H1802.12C1799.62 46.502 1797.49 48.634 1797.49 51.135C1797.49 53.636 1799.62 55.768 1802.12 55.768H1803.31V56.424H1802.12C1799.25 56.424 1796.83 54.005 1796.83 51.135C1796.83 48.265 1799.25 45.846 1802.12 45.846H1803.31ZM1803.31 40.926H1802.12C1796.5 40.926 1791.91 45.518 1791.91 51.135C1791.91 56.752 1796.5 61.344 1802.12 61.344H1803.31V62H1802.12C1796.13 62 1791.25 57.121 1791.25 51.135C1791.25 45.149 1796.13 40.27 1802.12 40.27H1803.31V40.926ZM1808.83 40.926H1805.59V40.27H1808.83V33.3H1809.48V40.27H1814.4V33.3H1815.06V40.27H1818.3V40.926H1815.06V45.846H1818.3V46.502H1815.06V62H1814.4V46.502H1809.48V62H1808.83V46.502H1805.59V45.846H1808.83V40.926ZM1814.4 40.926H1809.48V45.846H1814.4V40.926ZM1836.65 61.344H1848.17V62H1830.41V33.3H1831.07V55.768H1835.99V33.3H1836.65V55.768H1848.17V56.424H1836.65V61.344ZM1831.07 61.344H1835.99V56.424H1831.07V61.344ZM1866.29 42.115V60.155C1869.04 58.474 1871.21 55.071 1871.21 51.135C1871.21 47.199 1869.04 43.796 1866.29 42.115ZM1860.51 39.778C1862.35 39.778 1864.07 40.229 1865.63 41.008V40.27H1866.29V41.377C1868.58 42.648 1870.35 44.944 1871.21 47.322V40.27H1871.86V62H1871.21V54.907C1870.39 57.244 1868.58 59.663 1866.29 60.934V62H1865.63V61.262C1864.07 62.041 1862.35 62.492 1860.51 62.492C1854.23 62.492 1849.15 57.408 1849.15 51.135C1849.15 44.862 1854.23 39.778 1860.51 39.778ZM1860.51 61.836C1862.35 61.836 1864.12 61.385 1865.63 60.565V53.841C1864.65 55.645 1862.72 56.916 1860.51 56.916C1857.31 56.916 1854.73 54.333 1854.73 51.135C1854.73 47.937 1857.31 45.354 1860.51 45.354C1862.72 45.354 1864.65 46.625 1865.63 48.47V41.746C1864.12 40.926 1862.35 40.434 1860.51 40.434C1854.6 40.434 1849.81 45.231 1849.81 51.135C1849.81 57.039 1854.6 61.836 1860.51 61.836ZM1860.51 56.26C1863.38 56.26 1865.63 53.964 1865.63 51.135C1865.63 48.306 1863.38 46.01 1860.51 46.01C1857.68 46.01 1855.38 48.306 1855.38 51.135C1855.38 53.964 1857.68 56.26 1860.51 56.26ZM1886.99 62.492C1880.68 62.492 1875.59 57.367 1875.59 51.135V31.25H1876.25V47.363C1877.11 44.985 1878.87 42.689 1881.17 41.418V31.25H1881.83V41.008C1883.38 40.229 1885.15 39.778 1886.99 39.778C1893.27 39.778 1898.35 44.862 1898.35 51.135C1898.35 57.408 1893.27 62.492 1886.99 62.492ZM1886.99 56.916C1883.79 56.916 1881.17 54.292 1881.17 51.135V42.156C1878.42 43.837 1876.25 47.24 1876.25 51.176C1876.25 57.039 1881.01 61.836 1886.99 61.836C1892.9 61.836 1897.69 57.039 1897.69 51.135C1897.69 45.231 1892.9 40.434 1886.99 40.434C1885.15 40.434 1883.34 40.926 1881.83 41.746V48.511C1882.81 46.625 1884.78 45.354 1886.99 45.354C1890.19 45.354 1892.77 47.937 1892.77 51.135C1892.77 54.333 1890.19 56.916 1886.99 56.916ZM1886.99 46.01C1884.12 46.01 1881.83 48.306 1881.83 51.135C1881.83 53.964 1884.12 56.26 1886.99 56.26C1889.82 56.26 1892.12 53.964 1892.12 51.135C1892.12 48.306 1889.82 46.01 1886.99 46.01ZM1921.93 40.27L1907.74 71.02H1907.04L1909.58 65.526L1906.71 59.376L1901.34 71.02H1900.65L1906.39 58.597L1897.82 40.27H1898.51L1906.71 57.859L1909.54 51.75L1904.21 40.27H1904.91L1909.91 50.971L1914.83 40.27H1915.53L1910.24 51.709L1913.11 57.859L1921.23 40.27H1921.93ZM1909.95 64.747L1912.78 58.638L1909.91 52.488L1907.08 58.638L1909.95 64.747ZM1929.47 62V42.689C1927.25 44.042 1924.55 46.83 1924.55 51.709V62H1923.89V40.27H1924.55V47.732C1925.57 44.903 1927.17 43.304 1929.47 41.951V40.27H1930.12V41.582C1931.76 40.762 1933.53 40.352 1935.25 40.352V41.008C1933.53 41.008 1931.72 41.459 1930.12 42.32V49.044C1931.07 47.199 1933.03 45.928 1935.25 45.928V46.584C1932.38 46.584 1930.12 48.88 1930.12 51.709V62H1929.47ZM1937.71 62V40.27H1938.36V62H1937.71ZM1943.94 40.27V62H1943.28V40.27H1943.94ZM1943.28 38.138V31.25H1943.94V38.138H1943.28ZM1938.36 31.25V38.138H1937.71V31.25H1938.36ZM1948.12 62V40.27H1948.77V46.461C1949.67 44.124 1951.44 42.197 1953.69 41.09V40.27H1954.35V40.762C1955.5 40.311 1956.73 40.065 1958.04 40.065C1963.49 40.065 1967.96 44.534 1967.96 49.987V62H1967.3V49.987C1967.3 44.903 1963.12 40.721 1958.04 40.721C1956.73 40.721 1955.5 41.008 1954.35 41.5V47.691C1955.13 46.461 1956.48 45.641 1958.04 45.641C1960.42 45.641 1962.38 47.609 1962.38 49.987V62H1961.73V49.987C1961.73 47.978 1960.05 46.297 1958.04 46.297C1956.03 46.297 1954.35 47.978 1954.35 49.987V62H1953.69V41.828C1950.78 43.386 1948.77 46.461 1948.77 49.987V62H1948.12ZM1973.47 40.926H1970.23V40.27H1973.47V33.3H1974.12V40.27H1979.04V33.3H1979.7V40.27H1982.94V40.926H1979.7V45.846H1982.94V46.502H1979.7V62H1979.04V46.502H1974.12V62H1973.47V46.502H1970.23V45.846H1973.47V40.926ZM1979.04 40.926H1974.12V45.846H1979.04V40.926ZM1985.91 62V31.25H1986.57V46.461C1987.47 44.124 1989.23 42.197 1991.49 41.09V31.25H1992.14V40.762C1993.29 40.311 1994.52 40.065 1995.83 40.065C2001.29 40.065 2005.76 44.534 2005.76 49.987V62H2005.1V49.987C2005.1 44.903 2000.92 40.721 1995.83 40.721C1994.52 40.721 1993.29 41.008 1992.14 41.5V47.691C1992.92 46.461 1994.28 45.641 1995.83 45.641C1998.21 45.641 2000.18 47.609 2000.18 49.987V62H1999.52V49.987C1999.52 47.978 1997.84 46.297 1995.83 46.297C1993.83 46.297 1992.14 47.978 1992.14 49.987V62H1991.49V41.828C1988.58 43.386 1986.57 46.461 1986.57 49.987V62H1985.91Z" fill="white"/>
</g>
<defs>
<clipPath id="clip0_13_16">
<rect width="1940" height="343" fill="white"/>
</clipPath>
</defs>
</svg>
